<svg xmlns="http://www.w3.org/2000/svg" width="270.625" height="195.687" viewBox="0 0 270.625 195.687">
  <defs>
    <style>
      .cls-1 {
        fill: #e0e0e0;
        fill-rule: evenodd;
      }
    </style>
  </defs>
  <path id="Users-Icon" class="cls-1" d="M374.789,863.038a62.228,62.228,0,1,0-62.168-62.228A62.269,62.269,0,0,0,374.789,863.038Zm0-102.913a40.686,40.686,0,1,1-40.648,40.685A40.711,40.711,0,0,1,374.789,760.125Zm28.479,105.226a10.73,10.73,0,0,0-10.2,2.042L374.789,882.87l-18.271-15.477a10.743,10.743,0,0,0-10.206-2.042c-17.934,5.7-76.453,26.733-76.453,58.157a10.766,10.766,0,0,0,10.76,10.771H468.962a10.767,10.767,0,0,0,10.76-10.771C479.722,892.084,421.2,871.047,403.268,865.351ZM298.8,912.737c10.23-8.661,29.548-18.37,48.434-24.986l20.6,17.45a10.752,10.752,0,0,0,13.9,0l20.606-17.45c18.886,6.616,38.2,16.325,48.434,24.986H298.8Zm205.344-48.09a8.077,8.077,0,0,0-7.174,14.473c6.583,3.282,18.328,10.861,24.05,18.555H492.336a8.078,8.078,0,0,0,0,16.156h40.07a8.074,8.074,0,0,0,8.07-8.078C540.476,883.312,507.865,866.493,504.147,864.647Zm-40-13.779a24.532,24.532,0,0,1-17.48-7.248,8.076,8.076,0,1,0-11.417,11.424,40.894,40.894,0,1,0,12.993-66.614,8.077,8.077,0,0,0,6.279,14.884A24.747,24.747,0,1,1,464.149,850.868Z" transform="translate(-269.844 -738.594)"/>
</svg>
